<svg width="13" height="7" viewBox="0 0 13 7" fill="none" xmlns="http://www.w3.org/2000/svg">
<path d="M12.9998 0.828447C13.0034 0.668147 12.9472 0.510886 12.839 0.378427C12.7309 0.245967 12.5761 0.144858 12.3961 0.0890904C12.2161 0.0333229 12.0198 0.0256544 11.8343 0.0671467C11.6489 0.108639 11.4834 0.19724 11.3609 0.32069L6.51764 5.04517L1.67433 0.317771C1.59894 0.231406 1.50293 0.159029 1.39236 0.105209C1.28178 0.0513877 1.15905 0.0172914 1.03191 0.00507139C0.904763 -0.00714863 0.775966 0.00277318 0.653644 0.0342104C0.531322 0.0656476 0.418131 0.117918 0.321216 0.187722C0.224299 0.257526 0.145762 0.343349 0.0905619 0.439774C0.0353613 0.536199 0.00469589 0.641133 0.000498772 0.747952C-0.0036974 0.854772 0.0186644 0.961158 0.0661783 1.0604C0.113691 1.15964 0.185325 1.24957 0.276553 1.32453L5.80827 6.72894C5.8952 6.81393 6.00317 6.88218 6.12472 6.92897C6.24628 6.97577 6.37854 7 6.5124 7C6.64625 7 6.77851 6.97577 6.90007 6.92897C7.02163 6.88218 7.12959 6.81393 7.21653 6.72894L12.7657 1.32453C12.9117 1.18758 12.9947 1.01176 12.9998 0.828447Z" fill="#857F7E"/>
</svg>
